<?xml version="1.0" encoding="UTF-8" standalone="no"?>
<!-- Created with Inkscape (http://www.inkscape.org/) -->

<svg
   xmlns:dc="http://purl.org/dc/elements/1.1/"
   xmlns:cc="http://creativecommons.org/ns#"
   xmlns:rdf="http://www.w3.org/1999/02/22-rdf-syntax-ns#"
   xmlns:svg="http://www.w3.org/2000/svg"
   xmlns="http://www.w3.org/2000/svg"
   xmlns:xlink="http://www.w3.org/1999/xlink"
   xmlns:sodipodi="http://sodipodi.sourceforge.net/DTD/sodipodi-0.dtd"
   xmlns:inkscape="http://www.inkscape.org/namespaces/inkscape"
   version="1.0"
   width="40"
   height="40"
   id="svg2"
   inkscape:version="0.91 r13725"
   sodipodi:docname="bola de squash (ajustada).svg">
  <metadata
     id="metadata36">
    <rdf:RDF>
      <cc:Work
         rdf:about="">
        <dc:format>image/svg+xml</dc:format>
        <dc:type
           rdf:resource="http://purl.org/dc/dcmitype/StillImage" />
        <dc:title></dc:title>
      </cc:Work>
    </rdf:RDF>
  </metadata>
  <sodipodi:namedview
     pagecolor="#ffffff"
     bordercolor="#666666"
     borderopacity="1"
     objecttolerance="10"
     gridtolerance="10"
     guidetolerance="10"
     inkscape:pageopacity="0"
     inkscape:pageshadow="2"
     inkscape:window-width="1025"
     inkscape:window-height="772"
     id="namedview34"
     showgrid="false"
     inkscape:zoom="12.883203"
     inkscape:cx="20"
     inkscape:cy="22.787973"
     inkscape:window-x="176"
     inkscape:window-y="148"
     inkscape:window-maximized="0"
     inkscape:current-layer="svg2" />
  <style
     type="text/css"
     id="style4" />
  <defs
     id="defs6">
    <linearGradient
       id="linearGradient3429">
      <stop
         id="stop3431"
         style="stop-color:#474747;stop-opacity:1"
         offset="0" />
      <stop
         id="stop3433"
         style="stop-color:#111111;stop-opacity:1"
         offset="1" />
    </linearGradient>
    <linearGradient
       id="linearGradient3397">
      <stop
         id="stop3399"
         style="stop-color:#bca606;stop-opacity:1"
         offset="0" />
      <stop
         id="stop3401"
         style="stop-color:#f9e238;stop-opacity:1"
         offset="1" />
    </linearGradient>
    <linearGradient
       id="linearGradient3362">
      <stop
         id="stop3364"
         style="stop-color:#e6e6e6;stop-opacity:1"
         offset="0" />
      <stop
         id="stop3366"
         style="stop-color:#e6e6e6;stop-opacity:0"
         offset="1" />
    </linearGradient>
    <linearGradient
       x1="17.045849"
       y1="124.67077"
       x2="132.63301"
       y2="223.79634"
       id="linearGradient2669"
       xlink:href="#linearGradient3429"
       gradientUnits="userSpaceOnUse" />
    <linearGradient
       x1="-278.4653"
       y1="193.44319"
       x2="-270.36649"
       y2="202.4536"
       id="linearGradient2671"
       xlink:href="#linearGradient3397"
       gradientUnits="userSpaceOnUse" />
    <linearGradient
       x1="-278.4653"
       y1="193.44319"
       x2="-270.36649"
       y2="202.4536"
       id="linearGradient2673"
       xlink:href="#linearGradient3397"
       gradientUnits="userSpaceOnUse" />
    <linearGradient
       x1="40.806789"
       y1="100.66119"
       x2="71.311241"
       y2="125.64357"
       id="linearGradient2675"
       xlink:href="#linearGradient3362"
       gradientUnits="userSpaceOnUse"
       gradientTransform="matrix(1.0896879,0,0,1.0896879,-41.372913,-93.66228)" />
    <linearGradient
       x1="17.045849"
       y1="124.67077"
       x2="132.63301"
       y2="223.79634"
       id="linearGradient3455"
       xlink:href="#linearGradient3429"
       gradientUnits="userSpaceOnUse" />
    <linearGradient
       x1="-278.4653"
       y1="193.44319"
       x2="-270.36649"
       y2="202.4536"
       id="linearGradient3457"
       xlink:href="#linearGradient3397"
       gradientUnits="userSpaceOnUse" />
    <linearGradient
       x1="-278.4653"
       y1="193.44319"
       x2="-270.36649"
       y2="202.4536"
       id="linearGradient3459"
       xlink:href="#linearGradient3397"
       gradientUnits="userSpaceOnUse" />
    <linearGradient
       x1="40.806789"
       y1="100.66119"
       x2="71.311241"
       y2="125.64357"
       id="linearGradient3461"
       xlink:href="#linearGradient3362"
       gradientUnits="userSpaceOnUse"
       gradientTransform="matrix(1.0896879,0,0,1.0896879,-41.372913,-93.66228)" />
    <linearGradient
       x1="17.045849"
       y1="124.67077"
       x2="132.63301"
       y2="223.79634"
       id="linearGradient2414"
       xlink:href="#linearGradient3429"
       gradientUnits="userSpaceOnUse"
       gradientTransform="matrix(0.2361466,0,0,-0.2361466,2.0795258,61.136838)" />
    <linearGradient
       x1="-278.4653"
       y1="193.44319"
       x2="-270.36649"
       y2="202.4536"
       id="linearGradient2416"
       xlink:href="#linearGradient3397"
       gradientUnits="userSpaceOnUse" />
    <linearGradient
       x1="-278.4653"
       y1="193.44319"
       x2="-270.36649"
       y2="202.4536"
       id="linearGradient2418"
       xlink:href="#linearGradient3397"
       gradientUnits="userSpaceOnUse" />
    <linearGradient
       x1="40.806789"
       y1="100.66119"
       x2="71.311241"
       y2="125.64357"
       id="linearGradient2420"
       xlink:href="#linearGradient3362"
       gradientUnits="userSpaceOnUse"
       gradientTransform="matrix(1.007559,0,0,1.007559,-40.28546,-98.688773)" />
  </defs>
  <g
     id="g4164"
     transform="matrix(-0.70710678,0.70710678,0.70710678,0.70710678,20.048646,-8.4996551)">
    <path
       inkscape:connector-curvature="0"
       style="fill:url(#linearGradient2414);fill-opacity:1;fill-rule:nonzero;stroke:none;stroke-width:2;stroke-linecap:round;stroke-linejoin:miter;stroke-miterlimit:4;stroke-dasharray:none;stroke-dashoffset:0;stroke-opacity:1"
       id="path2579"
       d="M 39.305126,20.097617 C 39.306872,9.472525 30.694023,0.85826 20.06893,0.85826 9.4438383,0.85826 0.83098891,9.472525 0.83273501,20.097617 0.83098891,30.722709 9.4438383,39.336974 20.06893,39.336974 c 10.625093,0 19.237942,-8.614265 19.236196,-19.239357 l 0,0 z" />
    <g
       id="g3405"
       transform="matrix(0.2023605,0.05261402,-0.08535221,0.1801688,82.466007,8.8909557)">
      <path
         style="opacity:1;fill:#dec50c;fill-opacity:1;fill-rule:nonzero;stroke:none;stroke-width:2;stroke-linecap:round;stroke-linejoin:miter;stroke-miterlimit:4;stroke-dasharray:none;stroke-dashoffset:0;stroke-opacity:1"
         id="path3387"
         transform="matrix(1,0,0.4754098,1,-74.950861,-0.1885618)"
         d="m -268.37291,198.11153 c 0,2.96799 -2.63715,5.37401 -5.89024,5.37401 -3.25309,0 -5.89024,-2.40602 -5.89024,-5.37401 0,-2.96799 2.63715,-5.37401 5.89024,-5.37401 3.25309,0 5.89024,2.40602 5.89024,5.37401 l 0,0 z"
         inkscape:connector-curvature="0" />
      <path
         style="opacity:1;fill:url(#linearGradient2416);fill-opacity:1;fill-rule:nonzero;stroke:none;stroke-width:2;stroke-linecap:round;stroke-linejoin:miter;stroke-miterlimit:4;stroke-dasharray:none;stroke-dashoffset:0;stroke-opacity:1"
         id="path3395"
         transform="matrix(0.8684211,0,0.4128559,0.8684211,-98.645465,25.878744)"
         d="m -268.37291,198.11153 c 0,2.96799 -2.63715,5.37401 -5.89024,5.37401 -3.25309,0 -5.89024,-2.40602 -5.89024,-5.37401 0,-2.96799 2.63715,-5.37401 5.89024,-5.37401 3.25309,0 5.89024,2.40602 5.89024,5.37401 l 0,0 z"
         inkscape:connector-curvature="0" />
    </g>
    <g
       id="g3421"
       transform="matrix(0.178447,0.04171819,-0.00606089,0.1428576,57.615972,16.027556)">
      <path
         style="opacity:1;fill:#dec50c;fill-opacity:1;fill-rule:nonzero;stroke:none;stroke-width:2;stroke-linecap:round;stroke-linejoin:miter;stroke-miterlimit:4;stroke-dasharray:none;stroke-dashoffset:0;stroke-opacity:1"
         id="path3423"
         transform="matrix(1,0,0.4754098,1,-74.950861,-0.1885618)"
         d="m -268.37291,198.11153 c 0,2.96799 -2.63715,5.37401 -5.89024,5.37401 -3.25309,0 -5.89024,-2.40602 -5.89024,-5.37401 0,-2.96799 2.63715,-5.37401 5.89024,-5.37401 3.25309,0 5.89024,2.40602 5.89024,5.37401 l 0,0 z"
         inkscape:connector-curvature="0" />
      <path
         style="opacity:1;fill:url(#linearGradient2418);fill-opacity:1;fill-rule:nonzero;stroke:none;stroke-width:2;stroke-linecap:round;stroke-linejoin:miter;stroke-miterlimit:4;stroke-dasharray:none;stroke-dashoffset:0;stroke-opacity:1"
         id="path3425"
         transform="matrix(0.8684211,0,0.4128559,0.8684211,-98.645465,25.878744)"
         d="m -268.37291,198.11153 c 0,2.96799 -2.63715,5.37401 -5.89024,5.37401 -3.25309,0 -5.89024,-2.40602 -5.89024,-5.37401 0,-2.96799 2.63715,-5.37401 5.89024,-5.37401 3.25309,0 5.89024,2.40602 5.89024,5.37401 l 0,0 z"
         inkscape:connector-curvature="0" />
    </g>
    <path
       style="opacity:0.75;fill:url(#linearGradient2420);fill-opacity:1;fill-rule:nonzero;stroke:none;stroke-width:2;stroke-linecap:round;stroke-linejoin:miter;stroke-miterlimit:4;stroke-dashoffset:0;stroke-opacity:1"
       id="path4757"
       d="m 20.073665,2.4194015 c -9.770385,0 -17.6835644,7.9131785 -17.6835645,17.6835645 0,1.626563 0.2732132,3.130984 0.6356836,4.507575 0.216304,0.77539 0.8770957,1.345038 1.6758934,1.444735 0.5127376,0.06881 1.261956,0.288947 2.2826823,0.288947 9.7664542,0 17.5679842,-7.908265 17.5679852,-17.6835636 0,-1.6298106 -0.230358,-3.1031294 -0.548999,-4.4497857 C 23.807153,3.4128711 23.142059,2.8165813 22.327452,2.7083487 21.835976,2.6433166 21.094043,2.4194015 20.073665,2.4194015 Z"
       inkscape:connector-curvature="0" />
  </g>
</svg>
